<svg viewBox="0 0 15 17" fill="none" xmlns="http://www.w3.org/2000/svg"><path d="M13.73 15.15c.85-1 1.27-2.12 1.27-3.38 0-2.11-1.7-3.59-4.1-4.12 1.03-.25 1.8-.54 2.32-1.22.52-.69.78-1.45.78-2.3 0-1.16-.45-1.87-1.34-2.77-.9-.9-2.32-1.36-4.27-1.36h-8.39v17h8.8c2.77 0 4.09-.86 4.93-1.85Zm-9.06-11.79h2.1c1.26 0 1.9.43 1.9 1.38 0 .35-.14 1-.41 1.31-.27.31-.74.46-1.4.46h-2.2v-3.15Zm-.03 9.85v-3.08h2.58c.83 0 1.4.16 1.7.49.32.33.48.68.48 1.07 0 .4-.16.75-.48 1.06-.32.3-.83.46-1.51.46h-2.77Z" fill="#fff"/></svg>